<?xml version="1.0" encoding="iso-8859-1"?>
<!-- Uploaded to: SVG Repo, www.svgrepo.com, Generator: SVG Repo Mixer Tools -->
<svg fill="#000000" version="1.1" id="Layer_1" xmlns="http://www.w3.org/2000/svg" xmlns:xlink="http://www.w3.org/1999/xlink" 
	 viewBox="0 0 221.601 221.601" xml:space="preserve">
<g>
	<g>
		<g>
			<path d="M154.259,116.556c2.044-3.141,1.547-7.059-1.478-11.644c-1.515-2.297-3.006-4.514-4.433-6.637
				c-5.581-8.298-11.354-16.884-11.354-20.202c0-1.124,0.099-2.636,0.209-4.376c0.476-7.536,1.126-17.854-2.784-24.286
				c-0.919-1.511-0.089-3.638,2.026-8.128c2.168-4.608,4.867-10.345,4.867-17.791c0-15.815-43.781-17.59-62.93-17.606
				C76.137,5.594,62.536,4.055,47.23,7.263C24.936,11.936,9.895,24.452,3.74,43.458c-10.345,31.941,3.117,57.063,12.025,73.69
				c2.997,5.591,5.828,10.874,5.828,13.372c0,12.18-0.363,19.886-5.386,24.175c-7.702,6.577-9.128,15.286-9.185,15.653
				c-0.27,1.752,0.629,3.472,2.219,4.25l84.578,41.331c0.56,0.272,1.168,0.411,1.774,0.411c0.706,0,1.411-0.185,2.04-0.552
				c1.168-0.682,1.916-1.906,1.995-3.255l1.488-25.686c0.081-1.405-0.574-2.75-1.73-3.551l-5.909-4.103v-4.707
				c4.099,1.148,10.099,2.395,16.86,2.395c15.659,0,24.639-4.739,24.639-13.001c0-5.915,0.61-16.217,0.615-16.32
				c0.085-1.413-0.576-2.766-1.742-3.571l-14.52-9.991l16.789-1.926c1.975-0.225,3.49-1.855,3.577-3.839l0.31-7.149
				C144.831,121.342,151.469,120.845,154.259,116.556z M136.817,112.611c-1.135-0.177-2.308,0.122-3.208,0.848
				c-0.898,0.73-1.442,1.807-1.491,2.963l-0.347,8.014l-24.077,2.762c-1.675,0.189-3.054,1.401-3.46,3.034
				c-0.408,1.638,0.241,3.35,1.629,4.309l21.534,14.816c-0.185,3.453-0.503,10.054-0.503,14.52c0,2.419-6.193,4.92-16.558,4.92
				c-10.581,0-19.232-3.614-19.318-3.65c-1.249-0.533-2.679-0.398-3.81,0.351c-1.131,0.746-1.813,2.012-1.813,3.366v12.437
				c0,1.322,0.649,2.565,1.736,3.318l5.784,4.021l-1.006,17.361l-76.066-37.173c0.864-2.21,2.533-5.358,5.611-7.986
				c8.219-7.023,8.219-18.34,8.219-30.323c0-4.526-2.847-9.837-6.787-17.192c-8.26-15.416-20.745-38.715-11.46-67.377
				c5.267-16.26,17.801-26.602,37.253-30.733c15.033-3.192,28.723-1.314,28.859-1.29c0.189,0.024,0.383,0.04,0.572,0.04
				c30.534,0,55.122,5.212,55.122,9.525c0,5.638-2.178,10.267-4.099,14.351c-2.405,5.109-4.891,10.393-1.616,15.771
				c2.588,4.257,1.985,13.846,1.622,19.575c-0.122,1.941-0.225,3.63-0.225,4.885c0,5.784,5.339,13.723,12.729,24.712
				c1.415,2.103,2.892,4.301,4.396,6.577c1.207,1.831,1.343,2.722,1.438,2.778C146.36,113.088,141.153,113.333,136.817,112.611z"/>
			<path d="M201.399,102.241c-2.231,0-4.04,1.807-4.04,4.04c0,2.233,1.809,4.04,4.04,4.04c6.684,0,12.121,5.437,12.121,12.121
				c0,6.684-5.437,12.121-12.121,12.121h-54.545v8.081h56.566v-0.204c10.179-1.03,18.181-9.55,18.181-19.997
				C221.601,111.304,212.538,102.241,201.399,102.241z"/>
			<rect x="146.853" y="150.726" width="56.566" height="8.081"/>
		</g>
	</g>
</g>
</svg>